inDegrees=no
num_controls=7
num_derivatives=13
num_iterations=118
num_multipliers=7
num_parameters=0
num_slacks=7
num_states=26
objective=4.021707
objective_accelerations=0.550901
objective_balance=0.106343
objective_effort=0.465322
objective_height=2.836852
objective_ligament=0.062290
solver_duration=2260.597315
status=Solve_Succeeded
success=true
DataType=double
version=3
OpenSimVersion=4.4-2022-07-23-0e9fedc
endheader
time	/jointset/ground_pelvis/pelvis_tilt/value	/jointset/ground_pelvis/pelvis_tx/value	/jointset/ground_pelvis/pelvis_ty/value	/jointset/hip_l/hip_flexion_l/value	/jointset/hip_l/hip_adduction_l/value	/jointset/hip_l/hip_rotation_l/value	/jointset/back/lumbar_extension/value	/jointset/patellofemoral_l/patellar_flexion_l/value	/jointset/knee_l/knee_flexion_l/value	/jointset/knee_l/knee_adduction_l/value	/jointset/knee_l/knee_rotation_l/value	/jointset/ankle_l/ankle_angle_l/value	/jointset/subtalar_l/subtalar_angle_l/value	/jointset/ground_pelvis/pelvis_tilt/speed	/jointset/ground_pelvis/pelvis_tx/speed	/jointset/ground_pelvis/pelvis_ty/speed	/jointset/hip_l/hip_flexion_l/speed	/jointset/hip_l/hip_adduction_l/speed	/jointset/hip_l/hip_rotation_l/speed	/jointset/back/lumbar_extension/speed	/jointset/patellofemoral_l/patellar_flexion_l/speed	/jointset/knee_l/knee_flexion_l/speed	/jointset/knee_l/knee_adduction_l/speed	/jointset/knee_l/knee_rotation_l/speed	/jointset/ankle_l/ankle_angle_l/speed	/jointset/subtalar_l/subtalar_angle_l/speed	/forceset/tau_hip_flexion_l	/forceset/tau_hip_adduction_l	/forceset/tau_hip_rotation_l	/forceset/tau_knee_flexion_l	/forceset/tau_ankle_angle_l	/forceset/tau_subtalar_angle_l	/forceset/tau_lumbar_extension	lambda_cid13_p0	lambda_cid13_p1	lambda_cid13_p2	lambda_cid13_p3	lambda_cid13_p4	lambda_cid13_p5	lambda_cid14_p0	/jointset/ground_pelvis/pelvis_tilt/accel	/jointset/ground_pelvis/pelvis_tx/accel	/jointset/ground_pelvis/pelvis_ty/accel	/jointset/hip_l/hip_flexion_l/accel	/jointset/hip_l/hip_adduction_l/accel	/jointset/hip_l/hip_rotation_l/accel	/jointset/back/lumbar_extension/accel	/jointset/patellofemoral_l/patellar_flexion_l/accel	/jointset/knee_l/knee_flexion_l/accel	/jointset/knee_l/knee_adduction_l/accel	/jointset/knee_l/knee_rotation_l/accel	/jointset/ankle_l/ankle_angle_l/accel	/jointset/subtalar_l/subtalar_angle_l/accel	gamma_cid13_p0	gamma_cid13_p1	gamma_cid13_p2	gamma_cid13_p3	gamma_cid13_p4	gamma_cid13_p5	gamma_cid14_p0
0.5	-0.3553610587623495	-0.02007595211226951	0.718330916422926	1.333626293296653	-0.2555547212096211	-0.02535890482067227	-0.333973009390532	1.051100665953387	1.051100665953473	-0.007432102063554485	0.1745309565621333	0.2802412434630328	0.0687648376025113	-0.4402594751436852	-0.1164361077852198	-0.7363412644827301	2.560390193229361	0.0617848217157457	0.4519547055997786	-0.6151715972366596	2.731114153382911	2.731114153382928	0.4145367106070739	2.451568266561693e-05	0.7576909017994555	0.2827363069039696	-0.2054669736579688	0.01084357313506877	-0.008121423169664787	-0.2787550964334131	0.0507700274340282	0.0260293556303304	0.1990230530519062	-20.34753775468693	-7.562816423929126	0.5988097040954493	0.2932386882933192	-593.5774215604747	-57.75171516371065	-6.112017425171345	0.961806368991592	0.715261095857053	-0.6872483691014181	-1.601523041345258	-0.02458010179810103	-0.977216162922211	1.881030736737223	-1.919836149245887	-1.919836149245885	-0.2745579306242869	-0.1092841347530132	-1.48684045165687	-0.06527422788902758	2.050024018582408e-07	-5.725216468397531e-06	-4.021779503926407e-06	-9.604999205806064e-07	-1.32487894526666e-07	-3.985849379586849e-06	-4.961793315876197e-08
0.51	-0.3597145872048055	-0.02120444670933658	0.7109350044997896	1.359146284410901	-0.2549392074525973	-0.02089479347474565	-0.3400304372681804	1.078311303703491	1.078311303703513	-0.003296948938241777	0.1745308814361345	0.2877419428492295	0.07158688681657811	-0.4303756355056895	-0.109251826008718	-0.742662049984085	2.543282101511627	0.06128496596486069	0.4408466426097474	-0.5962513058595211	2.710630971384456	2.710630971384447	0.4124921222785357	-2.736652786059885e-05	0.7423155385242669	0.2815794995358022	-0.2127051510056772	0.01139745986451321	-0.008375430250367464	-0.2836064775423396	0.04826216262657381	0.0263695413123454	0.2051663727084212	-21.54851840913647	-7.291212647859366	0.3167105702178323	0.7238392954353261	-600.6129377704165	-57.94898142618773	-4.712246865373031	1.012261848413397	0.7214721702827644	-0.5776631320766444	-1.814333324326902	-0.06675985921263344	-1.180874576059914	1.906929203189766	-2.16991287620773	-2.169912876211483	-0.1704670984456204	0.04956447125335295	-1.583123647583049	-0.1536388248050681	1.169839930639081e-07	-5.309050406511412e-06	-3.076278206623543e-06	-8.340361280609862e-07	-1.984594209532922e-07	-3.72459089080207e-06	-1.028962869576104e-07
0.52	-0.363967159433437	-0.02226080639829137	0.703481250823355	1.384485418390506	-0.2543295065625775	-0.01654241740051854	-0.3458967820590592	1.105305638903374	1.105305638903371	0.0008175467408679288	0.1745308284351326	0.2950848407262481	0.0743948169902585	-0.4200682323793103	-0.1020091261627643	-0.7479096151423802	2.524218766300315	0.06062224831481135	0.4296076512590663	-0.5769549798828818	2.687853643343506	2.687853643343473	0.4104052213709192	2.8940679845483e-05	0.7261305999637513	0.2799124988266569	-0.2199433283533758	0.01195134659397959	-0.008629437331198638	-0.2884578586512652	0.04575429781912519	0.02670972699439144	0.2113096923649431	-22.74032702122158	-7.033564673254581	0.05093760246956804	1.090030722885616	-607.511988426456	-58.16250948570452	-3.498229987277845	1.046519066668223	0.7269447097474684	-0.4726043004894432	-1.992571740060784	-0.05715248163098933	-1.003401835052211	1.956237656637361	-2.378665357744744	-2.378665357744724	-0.2830204464399342	-0.0876462511065491	-1.648755508722195	-0.1673128960845915	-3.291075761938312e-08	-4.655531713771876e-06	-1.465739420858598e-06	-6.260953861630308e-07	-2.962105931883757e-07	-3.131720052970926e-06	-2.083886438779535e-07
0.53	-0.36811462139409	-0.02324454700348709	0.6959803821928632	1.409624446241972	-0.2537277212233836	-0.01229973447399295	-0.3515685467608675	1.132061195904979	1.132061195904984	0.004907575873720563	0.1745307529683029	0.3022619172323809	0.07718275928120448	-0.4093613216872528	-0.0947389911480406	-0.7520837550081151	2.503285720035068	0.05971262800777773	0.4189198935147053	-0.5573625085851965	2.662908423520227	2.662908423520207	0.4075974365334135	-2.934714870534082e-05	0.7091693958028386	0.2775906506799815	-0.2269384934575243	0.01264648201214278	-0.009022104755714064	-0.2935839428870892	0.04328999200675043	0.02674373772537819	0.2171960232986647	-23.94609057963892	-6.619400251391393	-0.2638873579358466	1.591159372219247	-614.4539187588937	-58.07712665500357	-2.464868579214099	1.092182141519158	0.726945081852834	-0.3628349483506053	-2.188856513497775	-0.110903959306666	-1.103209704499883	1.966069650342429	-2.604797553232913	-2.604797553230923	-0.2807265293398842	0.03749557238322507	-1.737262244771672	-0.2766605048747762	-9.830408035453847e-08	-4.134804363010915e-06	-6.614534893655854e-07	-5.023735794338322e-07	-3.360559996783545e-07	-2.762772264163241e-06	-2.421311807018182e-07
0.54	-0.3721531332336105	-0.02415560682163195	0.6884431689399673	1.434545106542039	-0.2531356395180732	-0.008164278516976174	-0.3570433231928968	1.158556831256613	1.158556831256649	0.008969313352774375	0.1745305777474238	0.309265889821906	0.07994507514450076	-0.3982782081534206	-0.08747296875259	-0.7551785396232293	2.480545256020178	0.05868152153804734	0.4081622573554772	-0.5375573259271813	2.635869313352412	2.635869313352405	0.4047468906185531	8.989867248086987e-06	0.6915098166420923	0.2747872132966771	-0.2339336585616656	0.01334161743034537	-0.009414772180443412	-0.2987100271229144	0.0408256861943869	0.0267777484564229	0.2230823542323894	-25.14477841335542	-6.222481237005891	-0.5576818344477741	2.024377711287164	-621.2861247434558	-58.05219586923601	-1.615999382587089	1.121759635023087	0.7261221858928788	-0.2567332503653337	-2.354055289989257	-0.08144971417039952	-1.017377518025631	1.998779928703339	-2.797443426651858	-2.79744342665184	-0.2915726619108841	-0.06832128220567217	-1.788430508688861	-0.2636307434103788	-7.020646153005304e-08	-3.760995092736888e-06	-7.491919923862104e-07	-4.718301690615573e-07	-3.118354525780039e-07	-2.641569125338959e-06	-1.964909378444717e-07
0.55	-0.3760791301671134	-0.02499410146388241	0.6808804239704124	1.459229598812697	-0.2525542390190956	-0.004136050336139228	-0.3623190107594808	1.184771858239286	1.18477185823939	0.01300221371864221	0.174530536862222	0.3160900223931668	0.08267722449614343	-0.3868668448972171	-0.0802318958347244	-0.7571874295911669	2.456059868798044	0.0575767174289314	0.3975113316366412	-0.5175571782528346	2.606808466156133	2.606808466156136	0.4017892112643479	-1.266481928872525e-05	0.6732217176917465	0.2715559155340526	-0.2407371808936499	0.01370041567365134	-0.009883950673567057	-0.3042053734018484	0.03841353907276294	0.02681948847732183	0.2287823942124233	-26.33970424386013	-5.840758933244996	-0.8362796280052062	2.533973572376761	-628.2333920534003	-58.10521291504176	-0.9616786165481144	1.158962312262743	0.7221183901799487	-0.1455728903536848	-2.539794134639424	-0.1280169284205781	-1.085046090962584	2.004083557295025	-3.009513600793356	-3.009513600791872	-0.3049304377484734	0.03183749756470724	-1.863382120913281	-0.3652327717412182	-4.162814158795557e-08	-3.404353259327678e-06	-8.333243263868954e-07	-4.472158886256329e-07	-2.823318130148458e-07	-2.520256288960205e-06	-1.543102119599657e-07
